# Blender 5.2.0 LTS
# www.blender.org
mtllib EP12-battery-stack.mtl
o EP12_Side-by-Side_-_Module_01
v 0.943000 0.000000 -2.788000
v 0.957500 0.490000 -2.847000
v 0.943000 0.000000 -2.378000
v 0.957500 0.494950 -2.844950
v 0.887000 0.000000 -2.788000
v 0.957500 0.497000 -2.840000
v 0.943000 0.000000 -2.822000
v 0.887000 0.000000 -2.378000
v 0.957500 0.497000 -2.360000
v 0.887000 0.000000 -2.822000
v 0.943000 0.000000 -2.412000
v 0.957500 0.494950 -2.355050
v 0.922500 0.459500 -2.361000
v 0.887000 0.000000 -2.412000
v 0.922500 0.474500 -2.361000
v 0.922500 0.427500 -2.361000
v 0.907500 0.459500 -2.361000
v 0.922500 0.442500 -2.361000
v 0.907500 0.474500 -2.361000
v 0.943000 0.416000 -2.357000
v 0.907500 0.427500 -2.361000
v 0.957500 0.490000 -2.353000
v 0.907500 0.442500 -2.361000
v 0.943000 0.485000 -2.357000
v 0.887000 0.416000 -2.357000
v 0.957500 0.018000 -2.353000
v 0.887000 0.485000 -2.357000
v 0.957500 0.013050 -2.355050
v 0.957500 0.011000 -2.360000
v 0.957500 0.011000 -2.840000
v 0.957500 0.013050 -2.844950
v 0.957500 0.018000 -2.847000
v 0.954500 0.490000 -2.850000
v 0.954500 0.497071 -2.847071
v 0.954500 0.500000 -2.840000
v 0.954500 0.500000 -2.360000
v 0.954500 0.497071 -2.352929
v 0.954500 0.490000 -2.350000
v 0.954500 0.018000 -2.350000
v 0.954500 0.010929 -2.352929
v 0.954500 0.008000 -2.360000
v 0.954500 0.008000 -2.840000
v 0.954500 0.010929 -2.847071
v 0.954500 0.018000 -2.850000
v 0.875500 0.490000 -2.850000
v 0.875500 0.497071 -2.847071
v 0.875500 0.500000 -2.840000
v 0.875500 0.500000 -2.360000
v 0.875500 0.497071 -2.352929
v 0.875500 0.490000 -2.350000
v 0.875500 0.018000 -2.350000
v 0.875500 0.010929 -2.352929
v 0.875500 0.008000 -2.360000
v 0.875500 0.008000 -2.840000
v 0.875500 0.010929 -2.847071
v 0.875500 0.018000 -2.850000
v 0.872500 0.490000 -2.847000
v 0.872500 0.494950 -2.844950
v 0.872500 0.497000 -2.840000
v 0.872500 0.497000 -2.360000
v 0.872500 0.494950 -2.355050
v 0.872500 0.490000 -2.353000
v 0.872500 0.018000 -2.353000
v 0.872500 0.013050 -2.355050
v 0.872500 0.011000 -2.360000
v 0.872500 0.011000 -2.840000
v 0.872500 0.013050 -2.844950
v 0.872500 0.018000 -2.847000
v 0.943000 0.485000 -2.350000
v 0.887000 0.416000 -2.350000
v 0.887000 0.485000 -2.350000
v 0.943000 0.416000 -2.350000
v 0.922500 0.442500 -2.357000
v 0.922500 0.427500 -2.357000
v 0.907500 0.442500 -2.357000
v 0.907500 0.427500 -2.357000
v 0.907500 0.459500 -2.357000
v 0.922500 0.459500 -2.357000
v 0.922500 0.474500 -2.357000
v 0.907500 0.474500 -2.357000
v 0.943000 0.008000 -2.378000
v 0.887000 0.008000 -2.378000
v 0.887000 0.008000 -2.412000
v 0.943000 0.008000 -2.412000
v 0.943000 0.008000 -2.788000
v 0.887000 0.008000 -2.788000
v 0.943000 0.008000 -2.822000
v 0.887000 0.008000 -2.822000
s 0
usemtl NGEN_Green.007
f 30 32 6
f 2 34 4
f 4 35 6
f 35 9 6
f 36 12 9
f 37 22 12
f 38 26 22
f 26 40 28
f 28 41 29
f 41 30 29
f 42 31 30
f 43 32 31
f 44 2 32
f 45 34 33
f 46 35 34
f 47 36 35
f 48 37 36
f 49 38 37
f 70 51 39
f 50 69 38
f 51 40 39
f 52 41 40
f 41 82 81
f 42 88 54
f 84 83 86
f 54 43 42
f 55 44 43
f 56 33 44
f 57 46 45
f 58 47 46
f 59 48 47
f 48 61 49
f 49 62 50
f 62 51 50
f 63 52 51
f 64 53 52
f 65 54 53
f 54 67 55
f 55 68 56
f 68 45 56
f 59 57 66
f 24 27 79
f 75 78 77
f 20 76 25
f 24 72 69
f 27 70 25
f 20 70 72
f 27 69 71
f 18 21 16
f 18 74 73
f 23 76 21
f 21 74 16
f 23 73 75
f 15 17 13
f 15 78 79
f 17 80 77
f 17 78 13
f 19 79 80
f 3 82 8
f 11 83 84
f 3 84 81
f 8 83 14
f 8 11 3
f 1 86 5
f 7 88 87
f 1 87 85
f 5 88 10
f 5 7 1
f 30 31 32
f 32 2 6
f 2 4 6
f 6 9 30
f 9 12 22
f 22 26 29
f 26 28 29
f 29 30 9
f 22 29 9
f 70 71 50
f 39 38 72
f 38 69 72
f 70 50 51
f 39 72 70
f 87 42 85
f 42 41 85
f 41 81 84
f 83 82 53
f 83 53 54
f 54 88 86
f 83 54 86
f 86 85 84
f 85 41 84
f 63 62 60
f 62 61 60
f 60 59 65
f 63 60 65
f 59 58 57
f 57 68 66
f 68 67 66
f 66 65 59
f 65 64 63
f 73 74 20
f 27 25 75
f 25 76 75
f 73 20 24
f 78 73 24
f 27 75 77
f 27 77 80
f 79 78 24
f 27 80 79
f 2 33 34
f 4 34 35
f 35 36 9
f 36 37 12
f 37 38 22
f 38 39 26
f 26 39 40
f 28 40 41
f 41 42 30
f 42 43 31
f 43 44 32
f 44 33 2
f 45 46 34
f 46 47 35
f 47 48 36
f 48 49 37
f 49 50 38
f 50 71 69
f 51 52 40
f 52 53 41
f 41 53 82
f 42 87 88
f 54 55 43
f 55 56 44
f 56 45 33
f 57 58 46
f 58 59 47
f 59 60 48
f 48 60 61
f 49 61 62
f 62 63 51
f 63 64 52
f 64 65 53
f 65 66 54
f 54 66 67
f 55 67 68
f 68 57 45
f 75 73 78
f 20 74 76
f 24 20 72
f 27 71 70
f 20 25 70
f 27 24 69
f 18 23 21
f 18 16 74
f 23 75 76
f 21 76 74
f 23 18 73
f 15 19 17
f 15 13 78
f 17 19 80
f 17 77 78
f 19 15 79
f 3 81 82
f 11 14 83
f 3 11 84
f 8 82 83
f 8 14 11
f 1 85 86
f 7 10 88
f 1 7 87
f 5 86 88
f 5 10 7
o EP12_Side-by-Side_-_Module_02
v 1.033000 0.000000 -2.788000
v 1.047500 0.490000 -2.847000
v 1.033000 0.000000 -2.378000
v 1.047500 0.494950 -2.844950
v 0.977000 0.000000 -2.788000
v 1.047500 0.497000 -2.840000
v 1.033000 0.000000 -2.822000
v 0.977000 0.000000 -2.378000
v 1.047500 0.497000 -2.360000
v 0.977000 0.000000 -2.822000
v 1.033000 0.000000 -2.412000
v 1.047500 0.494950 -2.355050
v 1.012500 0.459500 -2.361000
v 0.977000 0.000000 -2.412000
v 1.012500 0.474500 -2.361000
v 1.012500 0.427500 -2.361000
v 0.997500 0.459500 -2.361000
v 1.012500 0.442500 -2.361000
v 0.997500 0.474500 -2.361000
v 1.033000 0.416000 -2.357000
v 0.997500 0.427500 -2.361000
v 1.047500 0.490000 -2.353000
v 0.997500 0.442500 -2.361000
v 1.033000 0.485000 -2.357000
v 0.977000 0.416000 -2.357000
v 1.047500 0.018000 -2.353000
v 0.977000 0.485000 -2.357000
v 1.047500 0.013050 -2.355050
v 1.047500 0.011000 -2.360000
v 1.047500 0.011000 -2.840000
v 1.047500 0.013050 -2.844950
v 1.047500 0.018000 -2.847000
v 1.044500 0.490000 -2.850000
v 1.044500 0.497071 -2.847071
v 1.044500 0.500000 -2.840000
v 1.044500 0.500000 -2.360000
v 1.044500 0.497071 -2.352929
v 1.044500 0.490000 -2.350000
v 1.044500 0.018000 -2.350000
v 1.044500 0.010929 -2.352929
v 1.044500 0.008000 -2.360000
v 1.044500 0.008000 -2.840000
v 1.044500 0.010929 -2.847071
v 1.044500 0.018000 -2.850000
v 0.965500 0.490000 -2.850000
v 0.965500 0.497071 -2.847071
v 0.965500 0.500000 -2.840000
v 0.965500 0.500000 -2.360000
v 0.965500 0.497071 -2.352929
v 0.965500 0.490000 -2.350000
v 0.965500 0.018000 -2.350000
v 0.965500 0.010929 -2.352929
v 0.965500 0.008000 -2.360000
v 0.965500 0.008000 -2.840000
v 0.965500 0.010929 -2.847071
v 0.965500 0.018000 -2.850000
v 0.962500 0.490000 -2.847000
v 0.962500 0.494950 -2.844950
v 0.962500 0.497000 -2.840000
v 0.962500 0.497000 -2.360000
v 0.962500 0.494950 -2.355050
v 0.962500 0.490000 -2.353000
v 0.962500 0.018000 -2.353000
v 0.962500 0.013050 -2.355050
v 0.962500 0.011000 -2.360000
v 0.962500 0.011000 -2.840000
v 0.962500 0.013050 -2.844950
v 0.962500 0.018000 -2.847000
v 1.033000 0.485000 -2.350000
v 0.977000 0.416000 -2.350000
v 0.977000 0.485000 -2.350000
v 1.033000 0.416000 -2.350000
v 1.012500 0.442500 -2.357000
v 1.012500 0.427500 -2.357000
v 0.997500 0.442500 -2.357000
v 0.997500 0.427500 -2.357000
v 0.997500 0.459500 -2.357000
v 1.012500 0.459500 -2.357000
v 1.012500 0.474500 -2.357000
v 0.997500 0.474500 -2.357000
v 1.033000 0.008000 -2.378000
v 0.977000 0.008000 -2.378000
v 0.977000 0.008000 -2.412000
v 1.033000 0.008000 -2.412000
v 1.033000 0.008000 -2.788000
v 0.977000 0.008000 -2.788000
v 1.033000 0.008000 -2.822000
v 0.977000 0.008000 -2.822000
s 0
usemtl NGEN_Green.007
f 118 120 94
f 90 122 92
f 92 123 94
f 123 97 94
f 124 100 97
f 125 110 100
f 126 114 110
f 114 128 116
f 116 129 117
f 129 118 117
f 130 119 118
f 131 120 119
f 132 90 120
f 133 122 121
f 134 123 122
f 135 124 123
f 136 125 124
f 137 126 125
f 158 139 127
f 138 157 126
f 139 128 127
f 140 129 128
f 129 170 169
f 130 176 142
f 172 171 174
f 142 131 130
f 143 132 131
f 144 121 132
f 145 134 133
f 146 135 134
f 147 136 135
f 136 149 137
f 137 150 138
f 150 139 138
f 151 140 139
f 152 141 140
f 153 142 141
f 142 155 143
f 143 156 144
f 156 133 144
f 147 145 154
f 112 115 167
f 163 166 165
f 108 164 113
f 112 160 157
f 115 158 113
f 108 158 160
f 115 157 159
f 106 109 104
f 106 162 161
f 111 164 109
f 109 162 104
f 111 161 163
f 103 105 101
f 103 166 167
f 105 168 165
f 105 166 101
f 107 167 168
f 91 170 96
f 99 171 172
f 91 172 169
f 96 171 102
f 96 99 91
f 89 174 93
f 95 176 175
f 89 175 173
f 93 176 98
f 93 95 89
f 118 119 120
f 120 90 94
f 90 92 94
f 94 97 118
f 97 100 110
f 110 114 117
f 114 116 117
f 117 118 97
f 110 117 97
f 158 159 138
f 127 126 160
f 126 157 160
f 158 138 139
f 127 160 158
f 175 130 173
f 130 129 173
f 129 169 172
f 171 170 141
f 171 141 142
f 142 176 174
f 171 142 174
f 174 173 172
f 173 129 172
f 151 150 148
f 150 149 148
f 148 147 153
f 151 148 153
f 147 146 145
f 145 156 154
f 156 155 154
f 154 153 147
f 153 152 151
f 161 162 108
f 115 113 163
f 113 164 163
f 161 108 112
f 166 161 112
f 115 163 165
f 115 165 168
f 167 166 112
f 115 168 167
f 90 121 122
f 92 122 123
f 123 124 97
f 124 125 100
f 125 126 110
f 126 127 114
f 114 127 128
f 116 128 129
f 129 130 118
f 130 131 119
f 131 132 120
f 132 121 90
f 133 134 122
f 134 135 123
f 135 136 124
f 136 137 125
f 137 138 126
f 138 159 157
f 139 140 128
f 140 141 129
f 129 141 170
f 130 175 176
f 142 143 131
f 143 144 132
f 144 133 121
f 145 146 134
f 146 147 135
f 147 148 136
f 136 148 149
f 137 149 150
f 150 151 139
f 151 152 140
f 152 153 141
f 153 154 142
f 142 154 155
f 143 155 156
f 156 145 133
f 163 161 166
f 108 162 164
f 112 108 160
f 115 159 158
f 108 113 158
f 115 112 157
f 106 111 109
f 106 104 162
f 111 163 164
f 109 164 162
f 111 106 161
f 103 107 105
f 103 101 166
f 105 107 168
f 105 165 166
f 107 103 167
f 91 169 170
f 99 102 171
f 91 99 172
f 96 170 171
f 96 102 99
f 89 173 174
f 95 98 176
f 89 95 175
f 93 174 176
f 93 98 95
o EP12_Side-by-Side_-_Module_03
v 1.123000 0.000000 -2.788000
v 1.137500 0.490000 -2.847000
v 1.123000 0.000000 -2.378000
v 1.137500 0.494950 -2.844950
v 1.067000 0.000000 -2.788000
v 1.137500 0.497000 -2.840000
v 1.123000 0.000000 -2.822000
v 1.067000 0.000000 -2.378000
v 1.137500 0.497000 -2.360000
v 1.067000 0.000000 -2.822000
v 1.123000 0.000000 -2.412000
v 1.137500 0.494950 -2.355050
v 1.102500 0.459500 -2.361000
v 1.067000 0.000000 -2.412000
v 1.102500 0.474500 -2.361000
v 1.102500 0.427500 -2.361000
v 1.087500 0.459500 -2.361000
v 1.102500 0.442500 -2.361000
v 1.087500 0.474500 -2.361000
v 1.123000 0.416000 -2.357000
v 1.087500 0.427500 -2.361000
v 1.137500 0.490000 -2.353000
v 1.087500 0.442500 -2.361000
v 1.123000 0.485000 -2.357000
v 1.067000 0.416000 -2.357000
v 1.137500 0.018000 -2.353000
v 1.067000 0.485000 -2.357000
v 1.137500 0.013050 -2.355050
v 1.137500 0.011000 -2.360000
v 1.137500 0.011000 -2.840000
v 1.137500 0.013050 -2.844950
v 1.137500 0.018000 -2.847000
v 1.134500 0.490000 -2.850000
v 1.134500 0.497071 -2.847071
v 1.134500 0.500000 -2.840000
v 1.134500 0.500000 -2.360000
v 1.134500 0.497071 -2.352929
v 1.134500 0.490000 -2.350000
v 1.134500 0.018000 -2.350000
v 1.134500 0.010929 -2.352929
v 1.134500 0.008000 -2.360000
v 1.134500 0.008000 -2.840000
v 1.134500 0.010929 -2.847071
v 1.134500 0.018000 -2.850000
v 1.055500 0.490000 -2.850000
v 1.055500 0.497071 -2.847071
v 1.055500 0.500000 -2.840000
v 1.055500 0.500000 -2.360000
v 1.055500 0.497071 -2.352929
v 1.055500 0.490000 -2.350000
v 1.055500 0.018000 -2.350000
v 1.055500 0.010929 -2.352929
v 1.055500 0.008000 -2.360000
v 1.055500 0.008000 -2.840000
v 1.055500 0.010929 -2.847071
v 1.055500 0.018000 -2.850000
v 1.052500 0.490000 -2.847000
v 1.052500 0.494950 -2.844950
v 1.052500 0.497000 -2.840000
v 1.052500 0.497000 -2.360000
v 1.052500 0.494950 -2.355050
v 1.052500 0.490000 -2.353000
v 1.052500 0.018000 -2.353000
v 1.052500 0.013050 -2.355050
v 1.052500 0.011000 -2.360000
v 1.052500 0.011000 -2.840000
v 1.052500 0.013050 -2.844950
v 1.052500 0.018000 -2.847000
v 1.123000 0.485000 -2.350000
v 1.067000 0.416000 -2.350000
v 1.067000 0.485000 -2.350000
v 1.123000 0.416000 -2.350000
v 1.102500 0.442500 -2.357000
v 1.102500 0.427500 -2.357000
v 1.087500 0.442500 -2.357000
v 1.087500 0.427500 -2.357000
v 1.087500 0.459500 -2.357000
v 1.102500 0.459500 -2.357000
v 1.102500 0.474500 -2.357000
v 1.087500 0.474500 -2.357000
v 1.123000 0.008000 -2.378000
v 1.067000 0.008000 -2.378000
v 1.067000 0.008000 -2.412000
v 1.123000 0.008000 -2.412000
v 1.123000 0.008000 -2.788000
v 1.067000 0.008000 -2.788000
v 1.123000 0.008000 -2.822000
v 1.067000 0.008000 -2.822000
s 0
usemtl NGEN_Green.007
f 206 208 182
f 178 210 180
f 180 211 182
f 211 185 182
f 212 188 185
f 213 198 188
f 214 202 198
f 202 216 204
f 204 217 205
f 217 206 205
f 218 207 206
f 219 208 207
f 220 178 208
f 221 210 209
f 222 211 210
f 223 212 211
f 224 213 212
f 225 214 213
f 246 227 215
f 226 245 214
f 227 216 215
f 228 217 216
f 217 258 257
f 218 264 230
f 260 259 262
f 230 219 218
f 231 220 219
f 232 209 220
f 233 222 221
f 234 223 222
f 235 224 223
f 224 237 225
f 225 238 226
f 238 227 226
f 239 228 227
f 240 229 228
f 241 230 229
f 230 243 231
f 231 244 232
f 244 221 232
f 235 233 242
f 200 203 255
f 251 254 253
f 196 252 201
f 200 248 245
f 203 246 201
f 196 246 248
f 203 245 247
f 194 197 192
f 194 250 249
f 199 252 197
f 197 250 192
f 199 249 251
f 191 193 189
f 191 254 255
f 193 256 253
f 193 254 189
f 195 255 256
f 179 258 184
f 187 259 260
f 179 260 257
f 184 259 190
f 184 187 179
f 177 262 181
f 183 264 263
f 177 263 261
f 181 264 186
f 181 183 177
f 206 207 208
f 208 178 182
f 178 180 182
f 182 185 206
f 185 188 198
f 198 202 205
f 202 204 205
f 205 206 185
f 198 205 185
f 246 247 226
f 215 214 248
f 214 245 248
f 246 226 227
f 215 248 246
f 263 218 261
f 218 217 261
f 217 257 260
f 259 258 229
f 259 229 230
f 230 264 262
f 259 230 262
f 262 261 260
f 261 217 260
f 239 238 236
f 238 237 236
f 236 235 241
f 239 236 241
f 235 234 233
f 233 244 242
f 244 243 242
f 242 241 235
f 241 240 239
f 249 250 196
f 203 201 251
f 201 252 251
f 249 196 200
f 254 249 200
f 203 251 253
f 203 253 256
f 255 254 200
f 203 256 255
f 178 209 210
f 180 210 211
f 211 212 185
f 212 213 188
f 213 214 198
f 214 215 202
f 202 215 216
f 204 216 217
f 217 218 206
f 218 219 207
f 219 220 208
f 220 209 178
f 221 222 210
f 222 223 211
f 223 224 212
f 224 225 213
f 225 226 214
f 226 247 245
f 227 228 216
f 228 229 217
f 217 229 258
f 218 263 264
f 230 231 219
f 231 232 220
f 232 221 209
f 233 234 222
f 234 235 223
f 235 236 224
f 224 236 237
f 225 237 238
f 238 239 227
f 239 240 228
f 240 241 229
f 241 242 230
f 230 242 243
f 231 243 244
f 244 233 221
f 251 249 254
f 196 250 252
f 200 196 248
f 203 247 246
f 196 201 246
f 203 200 245
f 194 199 197
f 194 192 250
f 199 251 252
f 197 252 250
f 199 194 249
f 191 195 193
f 191 189 254
f 193 195 256
f 193 253 254
f 195 191 255
f 179 257 258
f 187 190 259
f 179 187 260
f 184 258 259
f 184 190 187
f 177 261 262
f 183 186 264
f 177 183 263
f 181 262 264
f 181 186 183
o EP12_Side-by-Side_-_Module_04
v 1.213000 0.000000 -2.788000
v 1.227500 0.490000 -2.847000
v 1.213000 0.000000 -2.378000
v 1.227500 0.494950 -2.844950
v 1.157000 0.000000 -2.788000
v 1.227500 0.497000 -2.840000
v 1.213000 0.000000 -2.822000
v 1.157000 0.000000 -2.378000
v 1.227500 0.497000 -2.360000
v 1.157000 0.000000 -2.822000
v 1.213000 0.000000 -2.412000
v 1.227500 0.494950 -2.355050
v 1.192500 0.459500 -2.361000
v 1.157000 0.000000 -2.412000
v 1.192500 0.474500 -2.361000
v 1.192500 0.427500 -2.361000
v 1.177500 0.459500 -2.361000
v 1.192500 0.442500 -2.361000
v 1.177500 0.474500 -2.361000
v 1.213000 0.416000 -2.357000
v 1.177500 0.427500 -2.361000
v 1.227500 0.490000 -2.353000
v 1.177500 0.442500 -2.361000
v 1.213000 0.485000 -2.357000
v 1.157000 0.416000 -2.357000
v 1.227500 0.018000 -2.353000
v 1.157000 0.485000 -2.357000
v 1.227500 0.013050 -2.355050
v 1.227500 0.011000 -2.360000
v 1.227500 0.011000 -2.840000
v 1.227500 0.013050 -2.844950
v 1.227500 0.018000 -2.847000
v 1.224500 0.490000 -2.850000
v 1.224500 0.497071 -2.847071
v 1.224500 0.500000 -2.840000
v 1.224500 0.500000 -2.360000
v 1.224500 0.497071 -2.352929
v 1.224500 0.490000 -2.350000
v 1.224500 0.018000 -2.350000
v 1.224500 0.010929 -2.352929
v 1.224500 0.008000 -2.360000
v 1.224500 0.008000 -2.840000
v 1.224500 0.010929 -2.847071
v 1.224500 0.018000 -2.850000
v 1.145500 0.490000 -2.850000
v 1.145500 0.497071 -2.847071
v 1.145500 0.500000 -2.840000
v 1.145500 0.500000 -2.360000
v 1.145500 0.497071 -2.352929
v 1.145500 0.490000 -2.350000
v 1.145500 0.018000 -2.350000
v 1.145500 0.010929 -2.352929
v 1.145500 0.008000 -2.360000
v 1.145500 0.008000 -2.840000
v 1.145500 0.010929 -2.847071
v 1.145500 0.018000 -2.850000
v 1.142500 0.490000 -2.847000
v 1.142500 0.494950 -2.844950
v 1.142500 0.497000 -2.840000
v 1.142500 0.497000 -2.360000
v 1.142500 0.494950 -2.355050
v 1.142500 0.490000 -2.353000
v 1.142500 0.018000 -2.353000
v 1.142500 0.013050 -2.355050
v 1.142500 0.011000 -2.360000
v 1.142500 0.011000 -2.840000
v 1.142500 0.013050 -2.844950
v 1.142500 0.018000 -2.847000
v 1.213000 0.485000 -2.350000
v 1.157000 0.416000 -2.350000
v 1.157000 0.485000 -2.350000
v 1.213000 0.416000 -2.350000
v 1.192500 0.442500 -2.357000
v 1.192500 0.427500 -2.357000
v 1.177500 0.442500 -2.357000
v 1.177500 0.427500 -2.357000
v 1.177500 0.459500 -2.357000
v 1.192500 0.459500 -2.357000
v 1.192500 0.474500 -2.357000
v 1.177500 0.474500 -2.357000
v 1.213000 0.008000 -2.378000
v 1.157000 0.008000 -2.378000
v 1.157000 0.008000 -2.412000
v 1.213000 0.008000 -2.412000
v 1.213000 0.008000 -2.788000
v 1.157000 0.008000 -2.788000
v 1.213000 0.008000 -2.822000
v 1.157000 0.008000 -2.822000
s 0
usemtl NGEN_Green.007
f 294 296 270
f 266 298 268
f 268 299 270
f 299 273 270
f 300 276 273
f 301 286 276
f 302 290 286
f 290 304 292
f 292 305 293
f 305 294 293
f 306 295 294
f 307 296 295
f 308 266 296
f 309 298 297
f 310 299 298
f 311 300 299
f 312 301 300
f 313 302 301
f 334 315 303
f 314 333 302
f 315 304 303
f 316 305 304
f 305 346 345
f 306 352 318
f 348 347 350
f 318 307 306
f 319 308 307
f 320 297 308
f 321 310 309
f 322 311 310
f 323 312 311
f 312 325 313
f 313 326 314
f 326 315 314
f 327 316 315
f 328 317 316
f 329 318 317
f 318 331 319
f 319 332 320
f 332 309 320
f 323 321 330
f 288 291 343
f 339 342 341
f 284 340 289
f 288 336 333
f 291 334 289
f 284 334 336
f 291 333 335
f 282 285 280
f 282 338 337
f 287 340 285
f 285 338 280
f 287 337 339
f 279 281 277
f 279 342 343
f 281 344 341
f 281 342 277
f 283 343 344
f 267 346 272
f 275 347 348
f 267 348 345
f 272 347 278
f 272 275 267
f 265 350 269
f 271 352 351
f 265 351 349
f 269 352 274
f 269 271 265
f 294 295 296
f 296 266 270
f 266 268 270
f 270 273 294
f 273 276 286
f 286 290 293
f 290 292 293
f 293 294 273
f 286 293 273
f 334 335 314
f 303 302 336
f 302 333 336
f 334 314 315
f 303 336 334
f 351 306 349
f 306 305 349
f 305 345 348
f 347 346 317
f 347 317 318
f 318 352 350
f 347 318 350
f 350 349 348
f 349 305 348
f 327 326 324
f 326 325 324
f 324 323 329
f 327 324 329
f 323 322 321
f 321 332 330
f 332 331 330
f 330 329 323
f 329 328 327
f 337 338 284
f 291 289 339
f 289 340 339
f 337 284 288
f 342 337 288
f 291 339 341
f 291 341 344
f 343 342 288
f 291 344 343
f 266 297 298
f 268 298 299
f 299 300 273
f 300 301 276
f 301 302 286
f 302 303 290
f 290 303 304
f 292 304 305
f 305 306 294
f 306 307 295
f 307 308 296
f 308 297 266
f 309 310 298
f 310 311 299
f 311 312 300
f 312 313 301
f 313 314 302
f 314 335 333
f 315 316 304
f 316 317 305
f 305 317 346
f 306 351 352
f 318 319 307
f 319 320 308
f 320 309 297
f 321 322 310
f 322 323 311
f 323 324 312
f 312 324 325
f 313 325 326
f 326 327 315
f 327 328 316
f 328 329 317
f 329 330 318
f 318 330 331
f 319 331 332
f 332 321 309
f 339 337 342
f 284 338 340
f 288 284 336
f 291 335 334
f 284 289 334
f 291 288 333
f 282 287 285
f 282 280 338
f 287 339 340
f 285 340 338
f 287 282 337
f 279 283 281
f 279 277 342
f 281 283 344
f 281 341 342
f 283 279 343
f 267 345 346
f 275 278 347
f 267 275 348
f 272 346 347
f 272 278 275
f 265 349 350
f 271 274 352
f 265 271 351
f 269 350 352
f 269 274 271
