# Blender 5.2.0 LTS
# www.blender.org
mtllib NGEN_assets.mtl
o Battery_Nine_Stack_-_Slave_with_Legs
v -0.250000 0.028000 -2.725000
v -0.202500 0.146450 -2.625000
v 0.250000 0.028000 -2.725000
v -0.157500 0.146450 -2.625000
v -0.250000 0.028000 -2.475000
v -0.157500 0.146450 -2.663000
v 0.250000 0.028000 -2.475000
v -0.202500 0.146450 -2.663000
v -0.197500 0.153750 -2.634000
v -0.162500 0.153750 -2.634000
v -0.162500 0.153750 -2.660000
v -0.197500 0.153750 -2.660000
v 0.202500 0.146450 -2.625000
v 0.202500 0.146450 -2.663000
v 0.157500 0.146450 -2.663000
v 0.162500 0.153750 -2.634000
v 0.197500 0.153750 -2.634000
v 0.250000 0.146750 -2.725000
v 0.250000 0.146750 -2.475000
v 0.197500 0.153750 -2.660000
v 0.162500 0.153750 -2.660000
v -0.250000 0.146750 -2.475000
v -0.250000 0.146750 -2.725000
v 0.157500 0.146450 -2.625000
v -0.246000 0.000000 -2.471000
v -0.208000 0.000000 -2.471000
v -0.208000 0.000000 -2.509000
v -0.246000 0.000000 -2.509000
v -0.238500 0.029000 -2.478500
v -0.215500 0.029000 -2.478500
v -0.215500 0.029000 -2.501500
v -0.238500 0.029000 -2.501500
v -0.208000 0.000000 -2.691000
v -0.208000 0.000000 -2.729000
v -0.246000 0.000000 -2.729000
v -0.238500 0.029000 -2.698500
v -0.215500 0.029000 -2.698500
v -0.215500 0.029000 -2.721500
v -0.238500 0.029000 -2.721500
v -0.246000 0.000000 -2.691000
v 0.246000 0.000000 -2.509000
v -0.232322 0.146750 -2.483839
v 0.232322 0.146750 -2.483839
v 0.208000 0.000000 -2.509000
v 0.215500 0.029000 -2.478500
v 0.232322 0.146750 -2.716161
v -0.232322 0.146750 -2.716161
v 0.238500 0.029000 -2.478500
v 0.238500 0.029000 -2.501500
v 0.215500 0.029000 -2.501500
v 0.208000 0.000000 -2.471000
v 0.246000 0.000000 -2.471000
v 0.215500 0.029000 -2.698500
v 0.238500 0.029000 -2.698500
v 0.238500 0.029000 -2.721500
v 0.215500 0.029000 -2.721500
v 0.208000 0.000000 -2.691000
v 0.246000 0.000000 -2.691000
v 0.246000 0.000000 -2.729000
v 0.208000 0.000000 -2.729000
v -0.250000 0.097000 -2.637000
v -0.246000 0.097000 -2.637000
v -0.250000 0.079000 -2.637000
v -0.246000 0.079000 -2.637000
v -0.250000 0.079000 -2.563000
v -0.246000 0.079000 -2.563000
v -0.250000 0.097000 -2.563000
v -0.246000 0.097000 -2.563000
v 0.250000 0.097000 -2.563000
v 0.246000 0.097000 -2.563000
v 0.250000 0.079000 -2.563000
v 0.246000 0.079000 -2.563000
v 0.250000 0.079000 -2.637000
v 0.246000 0.079000 -2.637000
v 0.250000 0.097000 -2.637000
v 0.246000 0.097000 -2.637000
v -0.232322 0.153000 -2.483839
v 0.232322 0.153000 -2.483839
v 0.232322 0.153000 -2.716161
v -0.232322 0.153000 -2.716161
s 0
usemtl NGEN_Green.007
f 7 1 3
f 77 79 80
f 28 31 27
f 23 46 18
f 51 50 44
f 52 49 48
f 10 12 9
f 8 4 2
f 30 32 29
f 54 56 53
f 34 37 33
f 37 39 36
f 3 23 18
f 19 71 69
f 5 19 22
f 23 63 61
f 18 43 19
f 25 32 28
f 51 48 45
f 6 12 11
f 8 9 12
f 6 10 4
f 4 9 2
f 13 16 24
f 25 30 29
f 15 16 21
f 26 31 30
f 35 33 40
f 48 50 45
f 44 52 51
f 40 37 36
f 44 49 41
f 60 55 59
f 60 53 56
f 60 58 57
f 59 54 58
f 14 21 20
f 35 36 39
f 15 13 24
f 14 17 13
f 22 47 23
f 19 42 22
f 28 26 25
f 35 38 34
f 57 54 53
f 17 21 16
f 63 62 61
f 5 63 1
f 65 64 63
f 22 65 5
f 67 66 65
f 22 61 67
f 61 68 67
f 64 68 62
f 71 70 69
f 7 73 71
f 73 72 71
f 18 73 3
f 75 74 73
f 19 75 18
f 69 76 75
f 72 76 70
f 47 79 46
f 46 78 43
f 43 77 42
f 42 80 47
f 7 5 1
f 77 78 79
f 28 32 31
f 23 47 46
f 51 45 50
f 52 41 49
f 10 11 12
f 8 6 4
f 30 31 32
f 54 55 56
f 34 38 37
f 37 38 39
f 3 1 23
f 19 7 71
f 5 7 19
f 23 1 63
f 18 46 43
f 25 29 32
f 51 52 48
f 6 8 12
f 8 2 9
f 6 11 10
f 4 10 9
f 13 17 16
f 25 26 30
f 15 24 16
f 26 27 31
f 35 34 33
f 48 49 50
f 44 41 52
f 40 33 37
f 44 50 49
f 60 56 55
f 60 57 53
f 60 59 58
f 59 55 54
f 14 15 21
f 35 40 36
f 15 14 13
f 14 20 17
f 22 42 47
f 19 43 42
f 28 27 26
f 35 39 38
f 57 58 54
f 17 20 21
f 63 64 62
f 5 65 63
f 65 66 64
f 22 67 65
f 67 68 66
f 22 23 61
f 61 62 68
f 64 66 68
f 71 72 70
f 7 3 73
f 73 74 72
f 18 75 73
f 75 76 74
f 19 69 75
f 69 70 76
f 72 74 76
f 47 80 79
f 46 79 78
f 43 78 77
f 42 77 80
o Battery_Nine_Stack_-_Slave_01
v -0.232322 0.278000 -2.483839
v -0.157500 0.271450 -2.663000
v 0.232322 0.278000 -2.483839
v -0.202500 0.271450 -2.663000
v 0.232322 0.278000 -2.716161
v -0.197500 0.278750 -2.634000
v -0.232322 0.278000 -2.716161
v -0.162500 0.278750 -2.634000
v -0.162500 0.278750 -2.660000
v -0.197500 0.278750 -2.660000
v -0.202500 0.271450 -2.625000
v -0.157500 0.271450 -2.625000
v 0.162500 0.278750 -2.634000
v 0.197500 0.278750 -2.634000
v 0.197500 0.278750 -2.660000
v 0.162500 0.278750 -2.660000
v 0.250000 0.159250 -2.725000
v 0.250000 0.159250 -2.475000
v -0.250000 0.159250 -2.475000
v -0.250000 0.159250 -2.725000
v 0.157500 0.271450 -2.625000
v 0.250000 0.271750 -2.725000
v 0.250000 0.271750 -2.475000
v 0.202500 0.271450 -2.625000
v 0.202500 0.271450 -2.663000
v -0.250000 0.271750 -2.475000
v -0.250000 0.271750 -2.725000
v 0.157500 0.271450 -2.663000
v -0.232322 0.159250 -2.483839
v 0.232322 0.159250 -2.483839
v 0.232322 0.159250 -2.716161
v -0.232322 0.159250 -2.716161
v -0.232322 0.271750 -2.483839
v 0.232322 0.271750 -2.483839
v 0.232322 0.271750 -2.716161
v -0.232322 0.271750 -2.716161
v -0.250000 0.224500 -2.637000
v -0.246000 0.224500 -2.637000
v -0.250000 0.206500 -2.637000
v -0.246000 0.206500 -2.637000
v -0.250000 0.206500 -2.563000
v -0.246000 0.206500 -2.563000
v -0.250000 0.224500 -2.563000
v -0.246000 0.224500 -2.563000
v 0.250000 0.224500 -2.563000
v 0.246000 0.224500 -2.563000
v 0.250000 0.206500 -2.563000
v 0.246000 0.206500 -2.563000
v 0.250000 0.206500 -2.637000
v 0.246000 0.206500 -2.637000
v 0.250000 0.224500 -2.637000
v 0.246000 0.224500 -2.637000
v -0.232322 0.153000 -2.483839
v 0.232322 0.153000 -2.483839
v 0.232322 0.153000 -2.716161
v -0.232322 0.153000 -2.716161
s 0
usemtl NGEN_Green.007
f 135 133 136
f 85 81 83
f 88 90 86
f 84 92 91
f 108 93 96
f 102 114 103
f 98 111 97
f 99 110 98
f 115 83 114
f 116 85 115
f 103 113 106
f 97 107 102
f 82 88 92
f 98 125 103
f 99 103 106
f 92 86 91
f 107 119 117
f 108 104 101
f 105 94 104
f 134 109 133
f 136 111 135
f 133 112 136
f 135 110 134
f 107 115 102
f 104 93 101
f 97 112 100
f 82 90 89
f 94 96 93
f 113 87 116
f 105 96 95
f 100 109 99
f 106 116 107
f 84 86 90
f 119 118 117
f 99 119 100
f 121 120 119
f 106 121 99
f 123 122 121
f 106 117 123
f 117 124 123
f 120 124 118
f 127 126 125
f 98 129 127
f 129 128 127
f 97 131 129
f 131 130 129
f 103 131 102
f 125 132 131
f 128 132 126
f 114 81 113
f 135 134 133
f 85 87 81
f 88 89 90
f 84 82 92
f 108 101 93
f 102 115 114
f 98 110 111
f 99 109 110
f 115 85 83
f 116 87 85
f 103 114 113
f 97 100 107
f 82 89 88
f 98 127 125
f 99 98 103
f 92 88 86
f 107 100 119
f 108 105 104
f 105 95 94
f 134 110 109
f 136 112 111
f 133 109 112
f 135 111 110
f 107 116 115
f 104 94 93
f 97 111 112
f 82 84 90
f 94 95 96
f 113 81 87
f 105 108 96
f 100 112 109
f 106 113 116
f 84 91 86
f 119 120 118
f 99 121 119
f 121 122 120
f 106 123 121
f 123 124 122
f 106 107 117
f 117 118 124
f 120 122 124
f 127 128 126
f 98 97 129
f 129 130 128
f 97 102 131
f 131 132 130
f 103 125 131
f 125 126 132
f 128 130 132
f 114 83 81
o Battery_Nine_Stack_-_Slave_02
v 0.232322 0.403000 -2.483839
v -0.162500 0.403750 -2.634000
v 0.232322 0.403000 -2.716161
v -0.162500 0.403750 -2.660000
v -0.232322 0.403000 -2.716161
v -0.197500 0.403750 -2.660000
v -0.232322 0.403000 -2.483839
v -0.202500 0.396450 -2.625000
v 0.250000 0.396750 -2.725000
v -0.157500 0.396450 -2.625000
v -0.157500 0.396450 -2.663000
v 0.250000 0.396750 -2.475000
v -0.250000 0.396750 -2.475000
v -0.202500 0.396450 -2.663000
v -0.197500 0.403750 -2.634000
v -0.250000 0.396750 -2.725000
v 0.250000 0.284250 -2.725000
v 0.250000 0.284250 -2.475000
v -0.250000 0.284250 -2.475000
v -0.250000 0.284250 -2.725000
v 0.197500 0.403750 -2.660000
v 0.232322 0.396750 -2.483839
v 0.232322 0.396750 -2.716161
v 0.162500 0.403750 -2.660000
v 0.157500 0.396450 -2.625000
v -0.232322 0.396750 -2.716161
v -0.232322 0.396750 -2.483839
v 0.202500 0.396450 -2.625000
v -0.232322 0.284250 -2.483839
v 0.232322 0.284250 -2.483839
v 0.232322 0.284250 -2.716161
v -0.232322 0.284250 -2.716161
v 0.202500 0.396450 -2.663000
v 0.157500 0.396450 -2.663000
v 0.162500 0.403750 -2.634000
v 0.197500 0.403750 -2.634000
v -0.250000 0.349500 -2.637000
v -0.246000 0.349500 -2.637000
v -0.250000 0.331500 -2.637000
v -0.246000 0.331500 -2.637000
v -0.250000 0.331500 -2.563000
v -0.246000 0.331500 -2.563000
v -0.250000 0.349500 -2.563000
v -0.246000 0.349500 -2.563000
v 0.250000 0.349500 -2.563000
v 0.246000 0.349500 -2.563000
v 0.250000 0.331500 -2.563000
v 0.246000 0.331500 -2.563000
v 0.250000 0.331500 -2.637000
v 0.246000 0.331500 -2.637000
v 0.250000 0.349500 -2.637000
v 0.246000 0.349500 -2.637000
v -0.232322 0.278000 -2.483839
v 0.232322 0.278000 -2.483839
v 0.232322 0.278000 -2.716161
v -0.232322 0.278000 -2.716161
s 0
usemtl NGEN_Green.007
f 191 189 192
f 141 137 139
f 164 171 161
f 154 167 153
f 155 166 154
f 138 142 151
f 150 146 144
f 169 160 157
f 149 162 152
f 162 139 159
f 163 141 162
f 156 165 155
f 169 172 164
f 158 143 163
f 153 152 145
f 154 181 148
f 159 137 158
f 155 148 149
f 152 175 173
f 147 138 146
f 172 160 171
f 147 142 140
f 170 164 161
f 190 165 189
f 192 167 191
f 189 168 192
f 191 166 190
f 152 159 145
f 145 158 148
f 150 151 142
f 153 168 156
f 148 163 149
f 146 151 144
f 170 171 160
f 175 174 173
f 155 175 156
f 177 176 175
f 149 177 155
f 179 178 177
f 149 173 179
f 173 180 179
f 176 180 174
f 183 182 181
f 154 185 183
f 185 184 183
f 153 187 185
f 187 186 185
f 148 187 145
f 181 188 187
f 184 188 182
f 191 190 189
f 141 143 137
f 164 172 171
f 154 166 167
f 155 165 166
f 138 140 142
f 150 147 146
f 169 170 160
f 149 163 162
f 162 141 139
f 163 143 141
f 156 168 165
f 169 157 172
f 158 137 143
f 153 156 152
f 154 183 181
f 159 139 137
f 155 154 148
f 152 156 175
f 147 140 138
f 172 157 160
f 147 150 142
f 170 169 164
f 190 166 165
f 192 168 167
f 189 165 168
f 191 167 166
f 152 162 159
f 145 159 158
f 150 144 151
f 153 167 168
f 148 158 163
f 146 138 151
f 170 161 171
f 175 176 174
f 155 177 175
f 177 178 176
f 149 179 177
f 179 180 178
f 149 152 173
f 173 174 180
f 176 178 180
f 183 184 182
f 154 153 185
f 185 186 184
f 153 145 187
f 187 188 186
f 148 181 187
f 181 182 188
f 184 186 188
o Battery_Nine_Stack_-_Slave_03
v 0.232322 0.528000 -2.483839
v -0.162500 0.528750 -2.634000
v 0.232322 0.528000 -2.716161
v -0.162500 0.528750 -2.660000
v -0.232322 0.528000 -2.716161
v -0.197500 0.528750 -2.660000
v -0.232322 0.528000 -2.483839
v -0.202500 0.521450 -2.625000
v 0.250000 0.521750 -2.725000
v -0.157500 0.521450 -2.625000
v -0.157500 0.521450 -2.663000
v 0.250000 0.521750 -2.475000
v -0.250000 0.521750 -2.475000
v -0.202500 0.521450 -2.663000
v -0.197500 0.528750 -2.634000
v -0.250000 0.521750 -2.725000
v 0.250000 0.409250 -2.725000
v 0.250000 0.409250 -2.475000
v -0.250000 0.409250 -2.475000
v -0.250000 0.409250 -2.725000
v 0.197500 0.528750 -2.660000
v 0.232322 0.521750 -2.483839
v 0.232322 0.521750 -2.716161
v 0.162500 0.528750 -2.660000
v 0.157500 0.521450 -2.625000
v -0.232322 0.521750 -2.716161
v -0.232322 0.521750 -2.483839
v 0.202500 0.521450 -2.625000
v -0.232322 0.409250 -2.483839
v 0.232322 0.409250 -2.483839
v 0.232322 0.409250 -2.716161
v -0.232322 0.409250 -2.716161
v 0.202500 0.521450 -2.663000
v 0.157500 0.521450 -2.663000
v 0.162500 0.528750 -2.634000
v 0.197500 0.528750 -2.634000
v -0.250000 0.474500 -2.637000
v -0.246000 0.474500 -2.637000
v -0.250000 0.456500 -2.637000
v -0.246000 0.456500 -2.637000
v -0.250000 0.456500 -2.563000
v -0.246000 0.456500 -2.563000
v -0.250000 0.474500 -2.563000
v -0.246000 0.474500 -2.563000
v 0.250000 0.474500 -2.563000
v 0.246000 0.474500 -2.563000
v 0.250000 0.456500 -2.563000
v 0.246000 0.456500 -2.563000
v 0.250000 0.456500 -2.637000
v 0.246000 0.456500 -2.637000
v 0.250000 0.474500 -2.637000
v 0.246000 0.474500 -2.637000
v -0.232322 0.403000 -2.483839
v 0.232322 0.403000 -2.483839
v 0.232322 0.403000 -2.716161
v -0.232322 0.403000 -2.716161
s 0
usemtl NGEN_Green.007
f 247 245 248
f 197 193 195
f 220 227 217
f 210 223 209
f 211 222 210
f 194 198 207
f 206 202 200
f 225 216 213
f 205 218 208
f 218 195 215
f 219 197 218
f 212 221 211
f 225 228 220
f 214 199 219
f 209 208 201
f 210 237 204
f 215 193 214
f 211 204 205
f 208 231 229
f 203 194 202
f 228 216 227
f 203 198 196
f 226 220 217
f 246 221 245
f 248 223 247
f 245 224 248
f 247 222 246
f 208 215 201
f 201 214 204
f 206 207 198
f 209 224 212
f 204 219 205
f 202 207 200
f 226 227 216
f 231 230 229
f 211 231 212
f 233 232 231
f 205 233 211
f 235 234 233
f 205 229 235
f 229 236 235
f 232 236 230
f 239 238 237
f 210 241 239
f 241 240 239
f 209 243 241
f 243 242 241
f 204 243 201
f 237 244 243
f 240 244 238
f 247 246 245
f 197 199 193
f 220 228 227
f 210 222 223
f 211 221 222
f 194 196 198
f 206 203 202
f 225 226 216
f 205 219 218
f 218 197 195
f 219 199 197
f 212 224 221
f 225 213 228
f 214 193 199
f 209 212 208
f 210 239 237
f 215 195 193
f 211 210 204
f 208 212 231
f 203 196 194
f 228 213 216
f 203 206 198
f 226 225 220
f 246 222 221
f 248 224 223
f 245 221 224
f 247 223 222
f 208 218 215
f 201 215 214
f 206 200 207
f 209 223 224
f 204 214 219
f 202 194 207
f 226 217 227
f 231 232 230
f 211 233 231
f 233 234 232
f 205 235 233
f 235 236 234
f 205 208 229
f 229 230 236
f 232 234 236
f 239 240 238
f 210 209 241
f 241 242 240
f 209 201 243
f 243 244 242
f 204 237 243
f 237 238 244
f 240 242 244
o Battery_Nine_Stack_-_Slave_04
v 0.232322 0.653000 -2.483839
v -0.162500 0.653750 -2.634000
v 0.232322 0.653000 -2.716161
v -0.162500 0.653750 -2.660000
v -0.232322 0.653000 -2.716161
v -0.197500 0.653750 -2.660000
v -0.232322 0.653000 -2.483839
v -0.202500 0.646450 -2.625000
v 0.250000 0.646750 -2.725000
v -0.157500 0.646450 -2.625000
v -0.157500 0.646450 -2.663000
v 0.250000 0.646750 -2.475000
v -0.250000 0.646750 -2.475000
v -0.202500 0.646450 -2.663000
v -0.197500 0.653750 -2.634000
v -0.250000 0.646750 -2.725000
v 0.250000 0.534250 -2.725000
v 0.250000 0.534250 -2.475000
v -0.250000 0.534250 -2.475000
v -0.250000 0.534250 -2.725000
v 0.197500 0.653750 -2.660000
v 0.232322 0.646750 -2.483839
v 0.232322 0.646750 -2.716161
v 0.162500 0.653750 -2.660000
v 0.157500 0.646450 -2.625000
v -0.232322 0.646750 -2.716161
v -0.232322 0.646750 -2.483839
v 0.202500 0.646450 -2.625000
v -0.232322 0.534250 -2.483839
v 0.232322 0.534250 -2.483839
v 0.232322 0.534250 -2.716161
v -0.232322 0.534250 -2.716161
v 0.202500 0.646450 -2.663000
v 0.157500 0.646450 -2.663000
v 0.162500 0.653750 -2.634000
v 0.197500 0.653750 -2.634000
v -0.250000 0.599500 -2.637000
v -0.246000 0.599500 -2.637000
v -0.250000 0.581500 -2.637000
v -0.246000 0.581500 -2.637000
v -0.250000 0.581500 -2.563000
v -0.246000 0.581500 -2.563000
v -0.250000 0.599500 -2.563000
v -0.246000 0.599500 -2.563000
v 0.250000 0.599500 -2.563000
v 0.246000 0.599500 -2.563000
v 0.250000 0.581500 -2.563000
v 0.246000 0.581500 -2.563000
v 0.250000 0.581500 -2.637000
v 0.246000 0.581500 -2.637000
v 0.250000 0.599500 -2.637000
v 0.246000 0.599500 -2.637000
v -0.232322 0.528000 -2.483839
v 0.232322 0.528000 -2.483839
v 0.232322 0.528000 -2.716161
v -0.232322 0.528000 -2.716161
s 0
usemtl NGEN_Green.007
f 303 301 304
f 253 249 251
f 276 283 273
f 266 279 265
f 267 278 266
f 250 254 263
f 262 258 256
f 281 272 269
f 261 274 264
f 274 251 271
f 275 253 274
f 268 277 267
f 281 284 276
f 270 255 275
f 265 264 257
f 266 293 260
f 271 249 270
f 267 260 261
f 264 287 285
f 259 250 258
f 284 272 283
f 259 254 252
f 282 276 273
f 302 277 301
f 304 279 303
f 301 280 304
f 303 278 302
f 264 271 257
f 257 270 260
f 262 263 254
f 265 280 268
f 260 275 261
f 258 263 256
f 282 283 272
f 287 286 285
f 267 287 268
f 289 288 287
f 261 289 267
f 291 290 289
f 261 285 291
f 285 292 291
f 288 292 286
f 295 294 293
f 266 297 295
f 297 296 295
f 265 299 297
f 299 298 297
f 260 299 257
f 293 300 299
f 296 300 294
f 303 302 301
f 253 255 249
f 276 284 283
f 266 278 279
f 267 277 278
f 250 252 254
f 262 259 258
f 281 282 272
f 261 275 274
f 274 253 251
f 275 255 253
f 268 280 277
f 281 269 284
f 270 249 255
f 265 268 264
f 266 295 293
f 271 251 249
f 267 266 260
f 264 268 287
f 259 252 250
f 284 269 272
f 259 262 254
f 282 281 276
f 302 278 277
f 304 280 279
f 301 277 280
f 303 279 278
f 264 274 271
f 257 271 270
f 262 256 263
f 265 279 280
f 260 270 275
f 258 250 263
f 282 273 283
f 287 288 286
f 267 289 287
f 289 290 288
f 261 291 289
f 291 292 290
f 261 264 285
f 285 286 292
f 288 290 292
f 295 296 294
f 266 265 297
f 297 298 296
f 265 257 299
f 299 300 298
f 260 293 299
f 293 294 300
f 296 298 300
o Battery_Nine_Stack_-_Slave_05
v 0.232322 0.778000 -2.483839
v -0.162500 0.778750 -2.634000
v 0.232322 0.778000 -2.716161
v -0.162500 0.778750 -2.660000
v -0.232322 0.778000 -2.716161
v -0.197500 0.778750 -2.660000
v -0.232322 0.778000 -2.483839
v -0.202500 0.771450 -2.625000
v 0.250000 0.771750 -2.725000
v -0.157500 0.771450 -2.625000
v -0.157500 0.771450 -2.663000
v 0.250000 0.771750 -2.475000
v -0.250000 0.771750 -2.475000
v -0.202500 0.771450 -2.663000
v -0.197500 0.778750 -2.634000
v -0.250000 0.771750 -2.725000
v 0.250000 0.659250 -2.725000
v 0.250000 0.659250 -2.475000
v -0.250000 0.659250 -2.475000
v -0.250000 0.659250 -2.725000
v 0.197500 0.778750 -2.660000
v 0.232322 0.771750 -2.483839
v 0.232322 0.771750 -2.716161
v 0.162500 0.778750 -2.660000
v 0.157500 0.771450 -2.625000
v -0.232322 0.771750 -2.716161
v -0.232322 0.771750 -2.483839
v 0.202500 0.771450 -2.625000
v -0.232322 0.659250 -2.483839
v 0.232322 0.659250 -2.483839
v 0.232322 0.659250 -2.716161
v -0.232322 0.659250 -2.716161
v 0.202500 0.771450 -2.663000
v 0.157500 0.771450 -2.663000
v 0.162500 0.778750 -2.634000
v 0.197500 0.778750 -2.634000
v -0.250000 0.724500 -2.637000
v -0.246000 0.724500 -2.637000
v -0.250000 0.706500 -2.637000
v -0.246000 0.706500 -2.637000
v -0.250000 0.706500 -2.563000
v -0.246000 0.706500 -2.563000
v -0.250000 0.724500 -2.563000
v -0.246000 0.724500 -2.563000
v 0.250000 0.724500 -2.563000
v 0.246000 0.724500 -2.563000
v 0.250000 0.706500 -2.563000
v 0.246000 0.706500 -2.563000
v 0.250000 0.706500 -2.637000
v 0.246000 0.706500 -2.637000
v 0.250000 0.724500 -2.637000
v 0.246000 0.724500 -2.637000
v -0.232322 0.653000 -2.483839
v 0.232322 0.653000 -2.483839
v 0.232322 0.653000 -2.716161
v -0.232322 0.653000 -2.716161
s 0
usemtl NGEN_Green.007
f 359 357 360
f 309 305 307
f 332 339 329
f 322 335 321
f 323 334 322
f 306 310 319
f 318 314 312
f 337 328 325
f 317 330 320
f 330 307 327
f 331 309 330
f 324 333 323
f 337 340 332
f 326 311 331
f 321 320 313
f 322 349 316
f 327 305 326
f 323 316 317
f 320 343 341
f 315 306 314
f 340 328 339
f 315 310 308
f 338 332 329
f 358 333 357
f 360 335 359
f 357 336 360
f 359 334 358
f 320 327 313
f 313 326 316
f 318 319 310
f 321 336 324
f 316 331 317
f 314 319 312
f 338 339 328
f 343 342 341
f 323 343 324
f 345 344 343
f 317 345 323
f 347 346 345
f 317 341 347
f 341 348 347
f 344 348 342
f 351 350 349
f 322 353 351
f 353 352 351
f 321 355 353
f 355 354 353
f 316 355 313
f 349 356 355
f 352 356 350
f 359 358 357
f 309 311 305
f 332 340 339
f 322 334 335
f 323 333 334
f 306 308 310
f 318 315 314
f 337 338 328
f 317 331 330
f 330 309 307
f 331 311 309
f 324 336 333
f 337 325 340
f 326 305 311
f 321 324 320
f 322 351 349
f 327 307 305
f 323 322 316
f 320 324 343
f 315 308 306
f 340 325 328
f 315 318 310
f 338 337 332
f 358 334 333
f 360 336 335
f 357 333 336
f 359 335 334
f 320 330 327
f 313 327 326
f 318 312 319
f 321 335 336
f 316 326 331
f 314 306 319
f 338 329 339
f 343 344 342
f 323 345 343
f 345 346 344
f 317 347 345
f 347 348 346
f 317 320 341
f 341 342 348
f 344 346 348
f 351 352 350
f 322 321 353
f 353 354 352
f 321 313 355
f 355 356 354
f 316 349 355
f 349 350 356
f 352 354 356
o Battery_Nine_Stack_-_Slave_06
v 0.232322 0.903000 -2.483839
v -0.162500 0.903750 -2.634000
v 0.232322 0.903000 -2.716161
v -0.162500 0.903750 -2.660000
v -0.232322 0.903000 -2.716161
v -0.197500 0.903750 -2.660000
v -0.232322 0.903000 -2.483839
v -0.202500 0.896450 -2.625000
v 0.250000 0.896750 -2.725000
v -0.157500 0.896450 -2.625000
v -0.157500 0.896450 -2.663000
v 0.250000 0.896750 -2.475000
v -0.250000 0.896750 -2.475000
v -0.202500 0.896450 -2.663000
v -0.197500 0.903750 -2.634000
v -0.250000 0.896750 -2.725000
v 0.250000 0.784250 -2.725000
v 0.250000 0.784250 -2.475000
v -0.250000 0.784250 -2.475000
v -0.250000 0.784250 -2.725000
v 0.197500 0.903750 -2.660000
v 0.232322 0.896750 -2.483839
v 0.232322 0.896750 -2.716161
v 0.162500 0.903750 -2.660000
v 0.157500 0.896450 -2.625000
v -0.232322 0.896750 -2.716161
v -0.232322 0.896750 -2.483839
v 0.202500 0.896450 -2.625000
v -0.232322 0.784250 -2.483839
v 0.232322 0.784250 -2.483839
v 0.232322 0.784250 -2.716161
v -0.232322 0.784250 -2.716161
v 0.202500 0.896450 -2.663000
v 0.157500 0.896450 -2.663000
v 0.162500 0.903750 -2.634000
v 0.197500 0.903750 -2.634000
v -0.250000 0.849500 -2.637000
v -0.246000 0.849500 -2.637000
v -0.250000 0.831500 -2.637000
v -0.246000 0.831500 -2.637000
v -0.250000 0.831500 -2.563000
v -0.246000 0.831500 -2.563000
v -0.250000 0.849500 -2.563000
v -0.246000 0.849500 -2.563000
v 0.250000 0.849500 -2.563000
v 0.246000 0.849500 -2.563000
v 0.250000 0.831500 -2.563000
v 0.246000 0.831500 -2.563000
v 0.250000 0.831500 -2.637000
v 0.246000 0.831500 -2.637000
v 0.250000 0.849500 -2.637000
v 0.246000 0.849500 -2.637000
v -0.232322 0.778000 -2.483839
v 0.232322 0.778000 -2.483839
v 0.232322 0.778000 -2.716161
v -0.232322 0.778000 -2.716161
s 0
usemtl NGEN_Green.007
f 415 413 416
f 365 361 363
f 388 395 385
f 378 391 377
f 379 390 378
f 362 366 375
f 374 370 368
f 393 384 381
f 373 386 376
f 386 363 383
f 387 365 386
f 380 389 379
f 393 396 388
f 382 367 387
f 377 376 369
f 378 405 372
f 383 361 382
f 379 372 373
f 376 399 397
f 371 362 370
f 396 384 395
f 371 366 364
f 394 388 385
f 414 389 413
f 416 391 415
f 413 392 416
f 415 390 414
f 376 383 369
f 369 382 372
f 374 375 366
f 377 392 380
f 372 387 373
f 370 375 368
f 394 395 384
f 399 398 397
f 379 399 380
f 401 400 399
f 373 401 379
f 403 402 401
f 373 397 403
f 397 404 403
f 400 404 398
f 407 406 405
f 378 409 407
f 409 408 407
f 377 411 409
f 411 410 409
f 372 411 369
f 405 412 411
f 408 412 406
f 415 414 413
f 365 367 361
f 388 396 395
f 378 390 391
f 379 389 390
f 362 364 366
f 374 371 370
f 393 394 384
f 373 387 386
f 386 365 363
f 387 367 365
f 380 392 389
f 393 381 396
f 382 361 367
f 377 380 376
f 378 407 405
f 383 363 361
f 379 378 372
f 376 380 399
f 371 364 362
f 396 381 384
f 371 374 366
f 394 393 388
f 414 390 389
f 416 392 391
f 413 389 392
f 415 391 390
f 376 386 383
f 369 383 382
f 374 368 375
f 377 391 392
f 372 382 387
f 370 362 375
f 394 385 395
f 399 400 398
f 379 401 399
f 401 402 400
f 373 403 401
f 403 404 402
f 373 376 397
f 397 398 404
f 400 402 404
f 407 408 406
f 378 377 409
f 409 410 408
f 377 369 411
f 411 412 410
f 372 405 411
f 405 406 412
f 408 410 412
o Battery_Nine_Stack_-_Slave_07
v 0.232322 1.028000 -2.483839
v -0.162500 1.028750 -2.634000
v 0.232322 1.028000 -2.716161
v -0.162500 1.028750 -2.660000
v -0.232322 1.028000 -2.716161
v -0.197500 1.028750 -2.660000
v -0.232322 1.028000 -2.483839
v -0.202500 1.021450 -2.625000
v 0.250000 1.021750 -2.725000
v -0.157500 1.021450 -2.625000
v -0.157500 1.021450 -2.663000
v 0.250000 1.021750 -2.475000
v -0.250000 1.021750 -2.475000
v -0.202500 1.021450 -2.663000
v -0.197500 1.028750 -2.634000
v -0.250000 1.021750 -2.725000
v 0.250000 0.909250 -2.725000
v 0.250000 0.909250 -2.475000
v -0.250000 0.909250 -2.475000
v -0.250000 0.909250 -2.725000
v 0.197500 1.028750 -2.660000
v 0.232322 1.021750 -2.483839
v 0.232322 1.021750 -2.716161
v 0.162500 1.028750 -2.660000
v 0.157500 1.021450 -2.625000
v -0.232322 1.021750 -2.716161
v -0.232322 1.021750 -2.483839
v 0.202500 1.021450 -2.625000
v -0.232322 0.909250 -2.483839
v 0.232322 0.909250 -2.483839
v 0.232322 0.909250 -2.716161
v -0.232322 0.909250 -2.716161
v 0.202500 1.021450 -2.663000
v 0.157500 1.021450 -2.663000
v 0.162500 1.028750 -2.634000
v 0.197500 1.028750 -2.634000
v -0.250000 0.974500 -2.637000
v -0.246000 0.974500 -2.637000
v -0.250000 0.956500 -2.637000
v -0.246000 0.956500 -2.637000
v -0.250000 0.956500 -2.563000
v -0.246000 0.956500 -2.563000
v -0.250000 0.974500 -2.563000
v -0.246000 0.974500 -2.563000
v 0.250000 0.974500 -2.563000
v 0.246000 0.974500 -2.563000
v 0.250000 0.956500 -2.563000
v 0.246000 0.956500 -2.563000
v 0.250000 0.956500 -2.637000
v 0.246000 0.956500 -2.637000
v 0.250000 0.974500 -2.637000
v 0.246000 0.974500 -2.637000
v -0.232322 0.903000 -2.483839
v 0.232322 0.903000 -2.483839
v 0.232322 0.903000 -2.716161
v -0.232322 0.903000 -2.716161
s 0
usemtl NGEN_Green.007
f 471 469 472
f 421 417 419
f 444 451 441
f 434 447 433
f 435 446 434
f 418 422 431
f 430 426 424
f 449 440 437
f 429 442 432
f 442 419 439
f 443 421 442
f 436 445 435
f 449 452 444
f 438 423 443
f 433 432 425
f 434 461 428
f 439 417 438
f 435 428 429
f 432 455 453
f 427 418 426
f 452 440 451
f 427 422 420
f 450 444 441
f 470 445 469
f 472 447 471
f 469 448 472
f 471 446 470
f 432 439 425
f 425 438 428
f 430 431 422
f 433 448 436
f 428 443 429
f 426 431 424
f 450 451 440
f 455 454 453
f 435 455 436
f 457 456 455
f 429 457 435
f 459 458 457
f 429 453 459
f 453 460 459
f 456 460 454
f 463 462 461
f 434 465 463
f 465 464 463
f 433 467 465
f 467 466 465
f 428 467 425
f 461 468 467
f 464 468 462
f 471 470 469
f 421 423 417
f 444 452 451
f 434 446 447
f 435 445 446
f 418 420 422
f 430 427 426
f 449 450 440
f 429 443 442
f 442 421 419
f 443 423 421
f 436 448 445
f 449 437 452
f 438 417 423
f 433 436 432
f 434 463 461
f 439 419 417
f 435 434 428
f 432 436 455
f 427 420 418
f 452 437 440
f 427 430 422
f 450 449 444
f 470 446 445
f 472 448 447
f 469 445 448
f 471 447 446
f 432 442 439
f 425 439 438
f 430 424 431
f 433 447 448
f 428 438 443
f 426 418 431
f 450 441 451
f 455 456 454
f 435 457 455
f 457 458 456
f 429 459 457
f 459 460 458
f 429 432 453
f 453 454 460
f 456 458 460
f 463 464 462
f 434 433 465
f 465 466 464
f 433 425 467
f 467 468 466
f 428 461 467
f 461 462 468
f 464 466 468
o Battery_Nine_Stack_-_Master
v -0.249000 1.074000 -2.614000
v -0.250000 1.153000 -2.725000
v -0.245000 1.074000 -2.614000
v 0.250000 1.153000 -2.725000
v -0.245000 1.074000 -2.626000
v -0.250000 1.153000 -2.475000
v -0.249000 1.074000 -2.626000
v 0.250000 1.153000 -2.475000
v -0.249000 1.118000 -2.614000
v 0.250000 1.034250 -2.725000
v 0.250000 1.034250 -2.475000
v -0.245000 1.118000 -2.614000
v -0.245000 1.118000 -2.626000
v -0.250000 1.034250 -2.475000
v -0.250000 1.034250 -2.725000
v -0.249000 1.118000 -2.626000
v 0.249000 1.118000 -2.614000
v 0.249000 1.118000 -2.626000
v 0.245000 1.118000 -2.626000
v 0.245000 1.074000 -2.614000
v 0.249000 1.074000 -2.614000
v 0.249000 1.074000 -2.626000
v 0.245000 1.074000 -2.626000
v 0.245000 1.118000 -2.614000
v 0.251100 1.088500 -2.530500
v 0.249600 1.088500 -2.530500
v 0.249600 1.083500 -2.525500
v 0.251100 1.083500 -2.525500
v 0.251100 1.083500 -2.530500
v 0.249600 1.083500 -2.530500
v 0.249600 1.088500 -2.525500
v 0.251100 1.088500 -2.525500
v 0.232322 1.034250 -2.483839
v -0.249600 1.083500 -2.525500
v -0.249600 1.083500 -2.530500
v 0.232322 1.034250 -2.716161
v -0.232322 1.034250 -2.716161
v -0.251100 1.083500 -2.530500
v -0.251100 1.088500 -2.525500
v -0.232322 1.034250 -2.483839
v -0.249600 1.088500 -2.525500
v -0.249600 1.088500 -2.530500
v -0.251100 1.088500 -2.530500
v -0.251100 1.083500 -2.525500
v 0.249600 1.098500 -2.530500
v 0.249600 1.093500 -2.525500
v 0.251100 1.093500 -2.525500
v 0.251100 1.093500 -2.530500
v 0.249600 1.093500 -2.530500
v 0.249600 1.098500 -2.525500
v 0.251100 1.098500 -2.525500
v 0.251100 1.098500 -2.530500
v -0.249600 1.093500 -2.530500
v -0.251100 1.093500 -2.530500
v -0.251100 1.098500 -2.525500
v -0.249600 1.098500 -2.525500
v -0.250000 1.129000 -2.649000
v -0.244000 1.129000 -2.649000
v -0.250000 1.063000 -2.649000
v -0.244000 1.063000 -2.649000
v -0.250000 1.063000 -2.591000
v -0.244000 1.063000 -2.591000
v -0.250000 1.129000 -2.591000
v -0.244000 1.129000 -2.591000
v -0.249600 1.098500 -2.530500
v -0.251100 1.098500 -2.530500
v -0.251100 1.093500 -2.525500
v -0.249600 1.093500 -2.525500
v 0.249600 1.103500 -2.525500
v 0.251100 1.103500 -2.525500
v 0.251100 1.103500 -2.530500
v 0.249600 1.103500 -2.530500
v 0.249600 1.108500 -2.525500
v 0.251100 1.108500 -2.525500
v 0.251100 1.108500 -2.530500
v 0.249600 1.108500 -2.530500
v -0.251100 1.108500 -2.525500
v -0.249600 1.108500 -2.525500
v -0.249600 1.108500 -2.530500
v -0.251100 1.108500 -2.530500
v -0.251100 1.103500 -2.525500
v -0.249600 1.103500 -2.525500
v -0.249600 1.103500 -2.530500
v -0.251100 1.103500 -2.530500
v 0.250000 1.129000 -2.591000
v 0.244000 1.129000 -2.591000
v 0.250000 1.063000 -2.591000
v 0.244000 1.063000 -2.591000
v 0.250000 1.063000 -2.649000
v 0.244000 1.063000 -2.649000
v 0.250000 1.129000 -2.649000
v 0.244000 1.129000 -2.649000
v 0.232322 1.028000 -2.483839
v 0.232322 1.028000 -2.716161
v -0.232322 1.028000 -2.716161
v -0.232322 1.028000 -2.483839
s 0
usemtl NGEN_Green.007
f 567 565 568
f 476 478 480
f 487 512 486
f 507 513 506
f 518 517 521
f 520 523 519
f 482 474 476
f 480 559 557
f 486 480 478
f 474 531 529
f 502 500 499
f 528 538 527
f 499 498 502
f 502 497 501
f 484 488 481
f 479 475 473
f 542 545 541
f 544 542 541
f 513 515 511
f 486 505 483
f 519 522 518
f 479 485 477
f 473 488 479
f 477 484 475
f 475 481 473
f 553 552 556
f 566 505 565
f 568 509 567
f 567 508 566
f 565 512 568
f 501 504 500
f 521 519 518
f 523 517 522
f 510 506 516
f 521 524 520
f 526 537 525
f 539 538 526
f 526 540 539
f 525 528 540
f 493 496 492
f 516 515 510
f 489 491 496
f 482 509 487
f 506 511 516
f 546 548 545
f 500 503 499
f 492 491 495
f 510 514 507
f 540 527 539
f 483 508 482
f 531 530 529
f 487 533 531
f 533 532 531
f 478 533 486
f 535 534 533
f 474 535 478
f 529 536 535
f 532 536 530
f 543 546 542
f 544 547 543
f 541 548 544
f 556 554 553
f 555 550 554
f 550 552 549
f 556 551 555
f 554 549 553
f 559 558 557
f 482 559 483
f 561 560 559
f 476 561 482
f 563 562 561
f 476 557 563
f 557 564 563
f 560 564 558
f 504 498 503
f 494 489 493
f 495 493 492
f 495 490 494
f 567 566 565
f 476 474 478
f 487 509 512
f 507 514 513
f 518 522 517
f 520 524 523
f 482 487 474
f 480 483 559
f 486 483 480
f 474 487 531
f 502 501 500
f 528 537 538
f 499 503 498
f 502 498 497
f 484 485 488
f 479 477 475
f 542 546 545
f 544 543 542
f 513 514 515
f 486 512 505
f 519 523 522
f 479 488 485
f 473 481 488
f 477 485 484
f 475 484 481
f 553 549 552
f 566 508 505
f 568 512 509
f 567 509 508
f 565 505 512
f 501 497 504
f 521 520 519
f 523 524 517
f 510 507 506
f 521 517 524
f 526 538 537
f 539 527 538
f 526 525 540
f 525 537 528
f 493 489 496
f 516 511 515
f 489 490 491
f 482 508 509
f 506 513 511
f 546 547 548
f 500 504 503
f 492 496 491
f 510 515 514
f 540 528 527
f 483 505 508
f 531 532 530
f 487 486 533
f 533 534 532
f 478 535 533
f 535 536 534
f 474 529 535
f 529 530 536
f 532 534 536
f 543 547 546
f 544 548 547
f 541 545 548
f 556 555 554
f 555 551 550
f 550 551 552
f 556 552 551
f 554 550 549
f 559 560 558
f 482 561 559
f 561 562 560
f 476 563 561
f 563 564 562
f 476 480 557
f 557 558 564
f 560 562 564
f 504 497 498
f 494 490 489
f 495 494 493
f 495 491 490
